<?xml version="1.0" encoding="UTF-8" standalone="no"?>
<!-- Created with Inkscape (http://www.inkscape.org/) -->

<svg
   width="426mm"
   height="340mm"
   viewBox="0 0 426 340"
   version="1.1"
   id="svg1"
   xml:space="preserve"
   inkscape:version="1.3 (0e150ed6c4, 2023-07-21)"
   sodipodi:docname="mage-outline.svg"
   xmlns:inkscape="http://www.inkscape.org/namespaces/inkscape"
   xmlns:sodipodi="http://sodipodi.sourceforge.net/DTD/sodipodi-0.dtd"
   xmlns="http://www.w3.org/2000/svg"
   xmlns:svg="http://www.w3.org/2000/svg"><sodipodi:namedview
     id="namedview1"
     pagecolor="#ffffff"
     bordercolor="#000000"
     borderopacity="0.25"
     inkscape:showpageshadow="2"
     inkscape:pageopacity="0.0"
     inkscape:pagecheckerboard="0"
     inkscape:deskcolor="#d1d1d1"
     inkscape:document-units="mm"
     inkscape:zoom="0.28284271"
     inkscape:cx="919.23881"
     inkscape:cy="616.95067"
     inkscape:window-width="1920"
     inkscape:window-height="1001"
     inkscape:window-x="-9"
     inkscape:window-y="-9"
     inkscape:window-maximized="1"
     inkscape:current-layer="layer1" /><defs
     id="defs1" /><g
     inkscape:label="Ebene 1"
     inkscape:groupmode="layer"
     id="layer1"><path
       id="rect1-9"
       style="fill:#000000;stroke-width:0.269294"
       d="m 629.97292,76.415653 0.84619,0.3357 9.77495,-3.383126 0.46482,0.515456 -8.75285,4.06785 -0.57855,1.34511 0.89363,0.73338 9.98218,-4.18068 0.27937,0.37 -7.2988,3.02059 -0.35621,1.52052 2.18295,0.27719 8.60791,-3.31104 1.18652,0.93315 -5.63012,3.49341 0.78892,0.98108 2.00313,-0.10469 3.54198,-2.97576 6.50346,-2.92571 5.4306,-6.291354 18.64399,-10.420866 13.57111,-9.123007 4.6437,-2.749131 13.17184,-4.368622 20.73556,-8.654226 4.75242,-1.314261 c -1.79798,-3.433854 -4.47445,-6.121402 -5.94897,-8.676784 -4.94743,-0.08864 -1.05795,-3.611303 -7.769,-2.78802 l -1.10487,1.156002 -1.32461,0.653465 -0.0728,0.44584 -1.649,1.943278 -2.42554,1.633098 -17.25036,6.895244 -5.86195,4.324595 -3.46058,1.66445 -3.35846,2.040516 -7.1753,4.618668 -6.81526,5.381338 -11.56826,8.064928 -4.77743,2.753631 c 0,0 -8.12385,0.330593 -8.33048,0.288072 -0.2066,-0.0427 -5.86659,-0.744336 -5.86659,-0.744336 l -1.66965,-1.043606 -1.38199,-0.03706 -0.0296,0.877335 0.91429,1.469379 1.8688,1.020366 3.12693,0.869769 1.21147,0.863021 -0.71752,1.026537 -1.29058,0.724868 -9.25058,3.555801 -3.23122,2.199672 z" /><path
       id="path1-3-9"
       style="fill:#000000;stroke-width:0.264583"
       d="m 823.78992,102.76766 -1.34087,-1.67689 -6.68366,-3.542304 -4.43561,-3.024137 3.97643,-0.730722 2.57488,-2.214999 -0.22841,-1.192585 -2.20998,1.085612 -6.40469,0.04514 -9.25819,-3.24981 -7.95407,-3.853139 -23.39781,-7.84312 -18.75485,-5.951896 -19.06098,-1.660122 -5.4393,-0.632286 c -4.22613,0.711637 -1.08846,3.06334 -5.45878,3.902495 -0.85903,2.341905 -2.55069,4.927195 -3.77391,7.896556 l 3.21777,-0.428579 1.79014,-0.09507 9.93307,2.02323 12.51105,0.753022 12.54543,-0.382624 2.81246,1.362254 9.26919,3.758968 10.65813,3.213259 16.65903,3.584401 1.03738,1.916043 2.19606,2.354918 4.49154,4.379595 0.74472,0.18607 5.5205,5.20157 0.92215,0.068 0.49077,-0.59165 -2.42961,-2.6111 -0.55865,-1.17508 -1.19764,-1.21149 1.85028,-0.28765 1.7338,1.51422 6.56852,3.59551 0.99801,0.11261 0.79781,-0.98731 -4.6457,-3.41403 5.56674,3.41219 1.53859,0.0601 0.62193,-0.74151 -5.24262,-4.87066 5.78955,2.71575 z" /><path
       id="path1-2-4"
       style="fill:#000000;stroke-width:0.264583"
       d="m 752.78196,-27.476212 c -1.89017,0.103706 -3.78028,0.264302 -5.67045,1.067636 -9.53422,5.010937 -14.10904,12.368878 -17.21187,22.1485187 l -1.20096,4.7366618 c 1.22424,-1.1489977 2.37353,-2.7676285 3.93619,-1.8014404 l -0.66714,3.6023641 0.13333,4.4700114 0.40049,2.5347287 -1.06764,0.667143 1.06764,3.1357257 2.60191,6.337598 3.00188,4.136181 0.73381,1.600936 -2.60191,0.667143 -4.98678,-1.234033 -0.0579,-0.09353 -6.02754,-1.506884 -7.11067,2.811197 -2.94814,2.872693 0.51676,1.820561 0.93431,6.13761 c 1.39412,17.901944 -2.60047,32.317412 -5.20382,47.632751 l -12.40854,60.17462 11.60808,-8.80618 c 2.42929,-1.88662 8.57715,3.84211 10.63346,8.00623 l -1.29347,31.35415 -0.80098,20.41375 1.06764,25.08425 -0.66715,2.93522 2.26808,19.34663 -7.47189,15.74426 0.13384,4.8028 6.67091,1.86811 5.87096,-2.13476 2.4014,-6.93808 4.16977,-5.70404 1.03405,-17.91209 v -7.87187 l 0.53382,-0.30024 0.59996,-1.76785 -1.44901,-1.95957 1.69809,-11.51041 -1.13223,-16.9819 1.50947,-8.11372 6.46317,-41.7835 2.86236,-0.67231 4.82658,40.56859 1.8867,8.11371 1.13223,31.88901 c 0,0 1.88699,18.86906 1.13223,19.05775 -0.75477,0.18869 -0.94361,17.92552 -0.94361,17.92552 l 3.01894,6.22701 7.73648,-0.18862 3.96255,-2.45308 -2.6417,-21.32221 2.83032,-14.52934 -0.18862,-38.11551 -0.94362,-14.34072 -0.55242,-36.46806 c 1.08964,-2.31946 9.11077,-6.13152 11.89747,-6.19962 1.55287,-0.89565 9.78823,9.45815 14.69419,13.98674 l -7.92458,-29.81317 -6.41563,-34.341571 -3.96823,-49.925118 -0.5054,-0.478523 -4.44365,-2.689242 -4.91081,-2.104781 -2.3394,-0.217558 -8.41189,1.233 -1.66811,-0.994255 0.46715,-2.06809 2.13476,-3.402377 0.33383,-4.669999 0.66714,-0.466638 1.00046,-4.202844 0.46715,-3.9361939 -0.66714,-0.2671672 0.0667,-2.9352213 -1.93477,-5.8704427 c 2.04622,-0.5676189 2.52102,1.221718 3.5357,2.201416 0.1598,-1.6290567 0.10024,-3.2323848 -0.80046,-4.7366618 -1.25154,-1.8332263 -2.52237,-3.6274744 -3.60237,-5.8037801 -1.56097,-3.855701 -4.21301,-7.396333 -2.00143,-12.341883 -0.088,-2.752879 7.39274,0.685485 11.9538,0.171049 -2.91042,-0.98536 -8.24945,-6.050125 -11.75381,-5.508191 z" /><g
       id="g2"
       transform="translate(48.060749,72.4861)"><path
         id="rect1"
         style="fill:#000000;stroke-width:0.269294"
         d="m -47.663758,78.607103 0.84619,0.3357 9.77495,-3.383126 0.46482,0.515456 -8.75285,4.06785 -0.57855,1.34511 0.89363,0.73338 9.98218,-4.18068 0.27937,0.37 -7.2988,3.02059 -0.35621,1.52052 2.18295,0.27719 8.60791,-3.31104 1.18652,0.93315 -5.63012,3.49341 0.78892,0.98108 2.00313,-0.10469 3.54198,-2.97576 6.50346,-2.92571 5.4306,-6.291354 18.64399042,-10.420866 13.57110958,-9.123007 4.6437,-2.749131 13.17184,-4.368622 20.73556,-8.654226 4.75242,-1.314261 c -1.79798,-3.433854 -4.47445,-6.121402 -5.94897,-8.676784 -4.94743,-0.08864 -1.05795,-3.611303 -7.769,-2.78802 l -1.10487,1.156002 -1.32461,0.653465 -0.0728,0.44584 -1.649,1.943278 -2.42554,1.633098 -17.25036,6.895244 -5.86195,4.324595 -3.46058,1.66445 -3.3584596,2.040516 -7.1753,4.618668 -6.81526,5.381338 -11.5682604,8.064928 -4.77743,2.753631 c 0,0 -8.12385,0.330593 -8.33048,0.288072 -0.2066,-0.0427 -5.86659,-0.744336 -5.86659,-0.744336 l -1.66965,-1.043606 -1.38199,-0.03706 -0.0296,0.877335 0.91429,1.469379 1.8688,1.020366 3.12693,0.869769 1.21147,0.863021 -0.71752,1.026537 -1.29058,0.724868 -9.25058,3.555801 -3.23122,2.199672 z" /><path
         id="path1-3"
         style="fill:#000000;stroke-width:0.264583"
         d="m 164.54226,101.32586 -0.51695,-2.083898 -4.59046,-6.01225 -2.76495,-4.60163 3.91771,0.99872 3.26511,-0.93556 0.29113,-1.17886 -2.46145,0.0622 -5.83691,-2.63675 -7.05146,-6.822935 -5.61453,-6.825744 -17.97553,-16.907175 -14.54853,-13.248005 -16.620994,-9.477327 -4.67673,-2.848508 c -4.13657,-1.120462 -2.26953,2.327672 -6.59039,1.26276 -1.75948,1.768236 -4.37708,3.409458 -6.72973,5.595422 l 3.10223,0.956 1.66591,0.662086 8.17734,5.990865 11.050254,5.914836 11.55629,4.897586 1.98531,2.41334 6.84857,7.290051 8.33845,7.375033 13.63452,10.221115 0.14127,2.17426 1.01033,3.05737 2.24906,5.85632 0.5987,0.4804 2.8401,7.03322 0.80927,0.447298 0.69316,-0.33231 -1.11538,-3.387728 -0.0162,-1.30102 -0.58142,-1.60125 1.80107,0.51228 0.9419,2.10042 4.46361,6.012428 0.85952,0.51955 1.13752,-0.56331 -2.79279,-5.043658 3.63023,5.427078 1.37254,0.69787 0.87501,-0.41352 -2.72603,-6.616428 4.12381,4.887568 z" /><path
         id="path1-2"
         style="fill:#000000;stroke-width:0.264583"
         d="m 75.145284,-25.284762 c -1.890176,0.103706 -3.780279,0.264302 -5.670455,1.067636 -9.534221,5.010937 -14.109036,12.368878 -17.211869,22.1485184 L 51.062,2.6680542 c 1.224237,-1.1489977 2.373527,-2.7676285 3.936193,-1.80144043 l -0.667142,3.60236413 0.133325,4.4700114 0.400492,2.5347287 -1.067635,0.667143 1.067635,3.135726 2.601909,6.337598 3.001883,4.136181 0.733806,1.600936 -2.601909,0.667143 -4.986775,-1.234033 -0.05788,-0.09353 -6.027539,-1.506884 -7.110677,2.811197 -2.94814,2.872693 0.516764,1.820561 0.93431,6.13761 c 1.394116,17.901944 -2.600473,32.317412 -5.203817,47.632751 l -12.408543,60.17462 11.608077,-8.80618 c 2.429295,-1.88662 8.577154,3.84211 10.63346,8.00623 l -1.293462,31.35415 -0.800984,20.41375 1.067635,25.08425 -0.667143,2.93522 2.268079,19.34663 -7.471896,15.74426 0.133842,4.8028 6.670911,1.86811 5.870959,-2.13476 2.401404,-6.93808 4.169772,-5.70404 1.034045,-17.91209 v -7.87187 l 0.533818,-0.30024 0.599963,-1.76785 -1.449007,-1.95957 1.698087,-11.51041 -1.13223,-16.9819 1.509468,-8.11372 6.463172,-41.7835 2.862357,-0.67231 4.826579,40.56859 1.886707,8.11371 1.13223,31.88901 c 0,0 1.886989,18.86906 1.132231,19.05775 -0.754769,0.18869 -0.943612,17.92552 -0.943612,17.92552 l 3.018937,6.22701 7.736479,-0.18862 3.962549,-2.45308 -2.641699,-21.32221 2.830318,-14.52934 -0.188619,-38.11551 -0.943612,-14.34072 -0.552421,-36.46806 c 1.089638,-2.31946 9.110767,-6.13152 11.897466,-6.19962 1.55287,-0.89565 9.78823,9.45815 14.69419,13.98674 l -7.92458,-29.81317 -6.41563,-34.341571 -3.968231,-49.925118 -0.505395,-0.478523 -4.443656,-2.689242 -4.910812,-2.104781 -2.339392,-0.217558 -8.41189,1.233 -1.668115,-0.994255 0.467155,-2.06809 2.134754,-3.402377 0.333829,-4.669999 0.667143,-0.466638 1.000456,-4.202844 0.467155,-3.9361942 -0.667143,-0.2671672 0.06666,-2.9352213 -1.934766,-5.87044273 c 2.046216,-0.56761886 2.521023,1.22171803 3.535701,2.20141603 0.1598,-1.6290567 0.100241,-3.23238475 -0.800467,-4.7366618 -1.251537,-1.8332263 -2.522367,-3.6274744 -3.602365,-5.8037801 -1.560966,-3.8557007 -4.213014,-7.3963327 -2.001428,-12.3418827 -0.08803,-2.752879 7.392742,0.685485 11.953793,0.171049 -2.910415,-0.98536 -8.249442,-6.050125 -11.753805,-5.508191 z" /></g><rect
       style="fill:none;stroke-width:0.911792"
       id="rect2"
       width="213"
       height="340"
       x="213"
       y="-2.1316282e-14" /><path
       style="fill:#000000;stroke-width:0.264583"
       d="m 330.64098,102.03271 9.12411,-1.33737 1.28303,-7.528942 2.66849,-18.946328 6.93809,-18.41263 9.07289,-22.949072 4.2696,-7.738642 3.73589,-9.072891 0.29477,-6.398008 -0.96704,-2.264294 1.2029,-0.165105 2.07561,2.688849 0.5189,4.009689 3.25492,-4.269139 3.89176,-6.48626 1.74539,-1.25008 0.68401,1.69822 -3.01906,5.637152 5.14183,-4.976731 0.7076,0.660419 -0.14152,1.533117 -3.70307,5.377699 3.65589,-4.45783 0.94346,0.849112 -0.1651,0.990626 -3.93893,6.36833 -1.60388,1.651048 0.18869,1.863325 1.27367,-1.132146 1.20291,-0.495314 2.73602,-2.287881 0.56495,0.52164 -0.11674,0.917297 -5.4871,5.236924 -0.22515,0.733838 -4.6115,4.252918 -2.46836,2.068083 -1.96801,0.933974 -4.46287,16.445792 -3.77382,10.472364 -4.24556,9.057179 -1.50953,2.736023 -0.28303,12.547966 -1.41519,12.453621 -2.54733,9.811948 v 1.79256 l 4.05686,51.04098 6.4155,34.34181 7.92504,29.8132 c -4.90597,-4.52859 -13.14146,-14.88239 -14.69433,-13.98674 -2.78671,0.0681 -10.80802,3.88031 -11.89766,6.19977 l 0.5526,36.46804 0.94345,14.34054 0.18869,38.11562 -2.83036,14.52923 2.64167,21.32211 -3.96251,2.45298 -7.73634,0.1887 -3.01906,-6.22682 c 0,0 0.18869,-17.73697 0.94346,-17.92566 0.75476,-0.18869 -1.13215,-19.05782 -1.13215,-19.05782 l -1.13215,-31.88881 -1.88691,-8.11373 -4.8262,-40.56861 -2.86242,0.67243 -6.46322,41.7831 -1.50953,8.11372 1.13214,16.98221 -1.69822,11.51016 1.44944,1.95953 -0.60041,1.76788 -0.5337,0.3002 v 7.87207 l -1.03404,17.91228 -4.16953,5.70393 -2.40164,6.93808 -5.8707,2.1348 -6.67124,-1.86793 -0.13342,-4.80331 7.47179,-15.74413 -2.26823,-19.34661 0.66713,-2.93534 -1.0674,-25.08387 0.80055,-20.41401 1.29373,-31.35391 c -2.05631,-4.16413 -8.20417,-9.89305 -10.63347,-8.00641 l -11.60796,8.80604 12.40851,-60.17461 c 2.60335,-15.31538 6.59769,-29.7307 5.20357,-47.63267 l -0.93398,-6.13754 -6.13754,-21.614831 -2.77745,-13.596197 -2.17988,-4.93672 -7.45118,-14.556446 -8.13892,-19.746877 -5.60384,-6.137542 -2.1348,-6.804668 -2.53507,-3.869322 0.13343,-2.001372 1.06739,-0.667123 2.80193,6.004118 1.06739,-1.0674 -2.26822,-8.939464 0.5337,-2.134799 1.46768,0.533699 2.13479,7.605218 0.40028,-0.233495 -2.96871,-10.407137 0.83391,-0.800549 1.26754,0.733837 3.00205,9.172959 0.56706,-0.400275 -2.20151,-10.106932 0.43363,-0.800547 1.00069,0.3002 1.80123,3.469048 2.43501,9.60659 0.56705,1.367605 0.93398,0.833905 1.00068,-1.100754 1.23418,-3.00206 1.23418,-1.734524 1.56774,-0.733835 0.86727,0.133424 -0.20014,1.367605 -1.23418,1.534385 c 0,0 -1.36761,5.537131 -1.43432,5.73727 -0.0667,0.200136 -0.70048,8.305697 -0.70048,8.305697 l 2.16815,5.070144 6.63789,12.441866 4.53645,7.40508 3.73589,7.671928 1.6284,3.576198 1.24307,3.633382 3.59964,6.333043 4.80329,17.945641 1.33425,2.601785 1.73452,1.867948 0.43363,0.125086 0.49201,1.39262 1.52604,1.851271 0.88394,0.08339 0.48367,0.78387 4.98675,1.234177 2.60179,-0.667122 -0.73384,-1.601097 -3.00206,-4.136171 -2.60178,-6.33768 -1.0674,-3.135484 1.0674,-0.667124 -0.40028,-2.535073 -0.13342,-4.469732 0.66712,-3.60247 c -1.56267,-0.966196 -2.71179,0.652235 -3.93603,1.801235 l 1.20082,-4.736582 c 7.40321,-10.268329 5.46022,-16.597293 9.27431,-22.975348 3.37699,-3.569481 2.19638,-4.617496 14.25633,-7.158076 -0.91855,-0.60609 -5.23442,6.176096 -5.35631,8.727022 -2.0066,3.967558 3.00719,11.731264 4.56816,15.586975 1.90683,2.010945 4.29204,4.253048 5.54358,6.086277 0.90071,1.504288 0.96035,3.107527 0.80055,4.736582 -1.01468,-0.979695 -1.48954,-2.769127 -3.53576,-2.20151 l 1.93466,5.870693 -0.0667,2.935346 0.66712,0.26685 -0.46698,3.936033 -1.00069,4.202883 -0.66712,0.466987 -0.33356,4.669869 -2.1348,3.402333 -0.46699,2.068084 z"
       id="path1"
       sodipodi:nodetypes="cccccccccccccccccccccccccccccccccccccccccccccccccccccccccccsccccccccccccccccccccccccccccccccccccccccccccccccccccccccccccccccccsccccccccccccccccccccccccccccccccccccccccccccc" /></g></svg>
